<?xml version="1.0" encoding="UTF-8" standalone="no"?>
<!-- Created with Inkscape (http://www.inkscape.org/) -->

<svg
   xmlns:dc="http://purl.org/dc/elements/1.1/"
   xmlns:cc="http://creativecommons.org/ns#"
   xmlns:rdf="http://www.w3.org/1999/02/22-rdf-syntax-ns#"
   xmlns:svg="http://www.w3.org/2000/svg"
   xmlns="http://www.w3.org/2000/svg"
   version="1.1"
   width="478.85965"
   height="213.94926"
   id="svg2">
  <defs
     id="defs4" />
  <metadata
     id="metadata7">
    <rdf:RDF>
      <cc:Work
         rdf:about="">
        <dc:format>image/svg+xml</dc:format>
        <dc:type
           rdf:resource="http://purl.org/dc/dcmitype/StillImage" />
        <dc:title></dc:title>
      </cc:Work>
    </rdf:RDF>
  </metadata>
  <g
     transform="translate(-147.4586,-245.46078)"
     id="layer1" />
  <g
     transform="translate(-147.4586,-245.46078)"
     id="layer2">
    <path
       d="m 231.5158,457.81087 c -27.22896,-5.56804 -51.60722,-21.95265 -66.70394,-44.8317 -5.65914,-8.57641 -12.18476,-23.25588 -15.04467,-33.84318 -2.09669,-7.7619 -2.35619,-10.83564 -2.30242,-27.2726 0.0559,-17.09405 0.27039,-19.24016 2.77705,-27.78718 11.37314,-38.77924 36.38862,-64.06108 75.14851,-75.94867 6.73571,-2.06582 9.53445,-2.16064 74.12738,-2.51119 63.14478,-0.3427 67.68345,-0.24676 76.5,1.617 40.04999,8.4663 73.41639,41.51958 81.41467,80.65063 4.13194,20.21524 0.5311,30.1851 -13.54205,37.4946 -4.59444,2.38632 -7.08942,2.92586 -15.15347,3.27697 -19.49798,0.84893 -27.27199,-5.10525 -35.29037,-27.02921 -5.92174,-16.19126 -17.5947,-26.69279 -32.6675,-29.38917 -4.33861,-0.77613 -24.19803,-1.02851 -61.88866,-0.78649 -62.20127,0.39939 -61.1496,0.28224 -71.01494,7.91102 -11.05286,8.54709 -16.35525,19.64775 -16.26227,34.04542 0.0859,13.30389 6.36566,25.24996 17.14962,32.62403 9.10227,6.22412 12.03133,6.78042 38.24643,7.26383 l 23.61884,0.43555 1.19793,4.11491 c 1.91737,6.58619 9.34468,20.68275 15.63439,29.67307 5.97785,8.54456 19.78534,22.98655 27.41423,28.67401 l 4.31585,3.21753 -50.40004,-0.0967 c -38.26243,-0.0734 -52.0556,-0.43525 -57.27457,-1.50247 z"
       id="path3864"
       style="fill:#b2d94f;fill-opacity:1;stroke:none" />
    <path
       d="m 391.39033,457.96516 c -32.72357,-6.11388 -60.35209,-27.1179 -75.04982,-57.05511 -8.87685,-18.0809 -12.02565,-37.53135 -7.50909,-46.38452 4.72275,-9.25736 14.11886,-14.21395 28.21238,-14.88245 19.08165,-0.9051 27.20915,4.8531 34.67596,24.56732 6.78479,17.91353 17.78763,27.7257 33.89202,30.22438 4.4727,0.69397 27.43495,0.95291 65.82371,0.74228 66.07852,-0.36254 64.50728,-0.20037 74.46978,-7.68605 10.72123,-8.05578 16.33711,-19.0836 16.33711,-32.08096 0,-13.2112 -6.44558,-25.5488 -17.01153,-32.56208 -9.89179,-6.5658 -10.96158,-6.74981 -41.88781,-7.20522 l -28.04731,-0.41302 -1.79794,-5.15984 c -6.33833,-18.1902 -24.46392,-41.96721 -42.00365,-55.10007 l -4.89619,-3.66602 57.39619,0.33136 57.3962,0.33135 9,2.75575 c 18.89463,5.78543 33.13152,14.1611 46.07911,27.10868 9.56076,9.56077 15.12625,17.52851 20.92472,29.9565 7.53855,16.15757 8.99168,23.34401 8.92173,44.12261 -0.0559,16.60979 -0.27039,18.69511 -2.77705,27 -5.65913,18.74941 -14.08825,33.09795 -27.0694,46.07911 -12.93844,12.93844 -27.14414,21.29906 -46.07911,27.11941 l -9,2.76647 -71.50001,0.19898 c -55.3485,0.15403 -73.08127,-0.0965 -78.5,-1.10886 z"
       id="path3830-4"
       style="fill:#b2d94f;fill-opacity:1;stroke:none" />
  </g>
  <g
     transform="translate(-147.4586,-245.46078)"
     id="layer3" />
</svg>
